<svg width="120" height="120" viewBox="0 0 120 120" fill="none" xmlns="http://www.w3.org/2000/svg">
<path d="M47.2779 64.9458C47.572 65.1403 47.9097 65.2376 48.2477 65.2376C48.5857 65.2376 48.9234 65.1403 49.2176 64.9458C49.8597 64.5209 52.1189 62.6864 54.2276 56.9178C56.3067 51.2292 57.4516 43.8633 57.4516 36.1758C57.4516 28.4883 56.3067 21.1221 54.2276 15.4336C52.1189 9.66495 49.8597 7.8305 49.2176 7.40581C48.6293 7.01675 47.8661 7.01675 47.2781 7.40581C46.6359 7.8305 44.3768 9.66495 42.2681 15.4336C40.189 21.1219 39.044 28.4878 39.044 36.1758C39.044 43.8635 40.189 51.2295 42.2681 56.9182C44.3765 62.6867 46.6357 64.5211 47.2779 64.9458ZM45.5697 16.6404C46.5293 14.0157 47.5188 12.3401 48.2477 11.3719C48.9761 12.3403 49.9661 14.0159 50.9257 16.6404C52.8668 21.9518 53.936 28.8898 53.936 36.176C53.936 43.4623 52.8668 50.3998 50.9257 55.7112C49.9661 58.336 48.9764 60.0117 48.2477 60.9799C47.519 60.0113 46.5293 58.3362 45.5697 55.7114C43.6286 50.4 42.5594 43.4621 42.5594 36.1758C42.5594 28.8896 43.6284 21.9516 45.5697 16.6404Z" fill="#500A0F"/>
<path d="M86.25 43.123C85.279 43.123 84.4922 43.9098 84.4922 44.8809V49.4748H77.7382C76.7672 49.4748 75.9804 50.2616 75.9804 51.2327C75.9804 52.2039 76.7672 52.9905 77.7382 52.9905H84.4922V68.8361H77.7382C76.7672 68.8361 75.9804 69.6229 75.9804 70.5939C75.9804 71.5652 76.7672 72.3517 77.7382 72.3517H84.4922V88.1971H77.7382C76.7672 88.1971 75.9804 88.9837 75.9804 89.9549C75.9804 90.9259 76.7672 91.7127 77.7382 91.7127H84.4922V104.452H80.8282C80.0616 101.761 77.5835 99.7846 74.6503 99.7846C71.7171 99.7846 69.2388 101.762 68.4724 104.452H64.5023V97.2937C64.5023 96.3227 63.7155 95.5359 62.7445 95.5359C61.7735 95.5359 60.9867 96.3227 60.9867 97.2937V116.836C60.9867 118.581 62.4063 120 64.1508 120H84.8437C86.5884 120 88.0078 118.581 88.0078 116.836V44.8809C88.0078 43.9101 87.221 43.123 86.25 43.123ZM74.6505 103.3C76.2544 103.3 77.5589 104.605 77.5589 106.209C77.5589 107.812 76.2544 109.117 74.6505 109.117C73.0467 109.117 71.7422 107.812 71.7422 106.209C71.7422 104.605 73.0467 103.3 74.6505 103.3ZM84.4922 116.485H64.5023V107.967H68.4731C69.24 110.657 71.7183 112.633 74.6503 112.633C77.5823 112.633 80.0606 110.657 80.8275 107.967H84.4922V116.485Z" fill="#500A0F"/>
<path d="M83.6227 11.1562C80.5922 3.96328 76.3758 0 71.7516 0H48.2484C46.0172 0 43.8703 0.930469 41.9086 2.70703C39.9469 4.48359 38.1656 7.10625 36.6656 10.4883C36.2719 11.3766 36.6703 12.4148 37.5586 12.8086C38.4469 13.2023 39.4852 12.8016 39.8789 11.9156C41.1047 9.15234 42.4945 7.01016 44.0062 5.54766C45.4031 4.2 46.8305 3.51562 48.2484 3.51562C49.432 3.51562 50.6273 4.00547 51.7875 4.93125C53.6367 6.41016 55.3969 9.00469 56.8781 12.5203C59.5266 18.8109 60.9867 27.2133 60.9867 36.1758V36.2648C60.9773 45.1969 59.5195 53.5617 56.8781 59.8312C54.4687 65.5547 51.3211 68.8359 48.2484 68.8359C45.1734 68.8359 42.0281 65.5547 39.6164 59.8312C36.968 53.5406 35.5078 45.1406 35.5078 36.1758C35.5078 30.0773 36.2016 24.1148 37.5094 18.9281C37.7484 17.9883 37.1789 17.032 36.2367 16.793C35.2969 16.5562 34.3406 17.1258 34.1016 18.068C32.7211 23.5312 31.9922 29.7914 31.9922 36.1758C31.9922 45.5977 33.5484 54.4828 36.3773 61.1953C39.4078 68.3906 43.6219 72.3518 48.2484 72.3518H60.9867V89.9555C60.9867 90.926 61.7742 91.7133 62.7445 91.7133C63.7148 91.7133 64.5023 90.926 64.5023 89.9555V36.1758C64.5023 27.3938 63.15 19.0805 60.675 12.5555C58.5398 6.65391 55.3477 3.51797 55.3477 3.51797C55.3758 3.51797 55.3992 3.525 55.4273 3.52734C55.425 3.52266 55.4203 3.52031 55.418 3.51562H71.7513C74.7677 3.51562 77.8545 6.67969 80.2474 12.2063H74.074C73.1037 12.2063 72.3162 12.9914 72.3162 13.9641C72.3162 14.9344 73.1037 15.7219 74.074 15.7219H81.5646C82.9427 19.9453 83.8615 24.8578 84.2599 30.1125H77.599C76.6287 30.1125 75.8412 30.9 75.8412 31.8703C75.8412 32.843 76.6287 33.6281 77.599 33.6281H84.4474C84.4732 34.4719 84.492 35.3203 84.492 36.1758V37.425C84.492 38.3953 85.2795 39.1828 86.2498 39.1828C87.2201 39.1828 88.0076 38.3953 88.0076 37.425V36.1758C88.0078 26.7539 86.4492 17.8687 83.6227 11.1562ZM60.9867 68.8359H55.4156C57.1734 66.9771 58.7648 64.4109 60.1195 61.1951C60.4242 60.4709 60.7125 59.7162 60.9867 58.943V68.8359Z" fill="#500A0F"/>
</svg>
