<svg width="196" height="196" viewBox="0 0 196 196" fill="none" xmlns="http://www.w3.org/2000/svg">
<path d="M103 87L107 91L103 95" stroke="#500A0F" stroke-width="2" stroke-linecap="round" stroke-linejoin="round"/>
<path d="M89 97V95C89 93.9391 89.4214 92.9217 90.1716 92.1716C90.9217 91.4214 91.9391 91 93 91H107" stroke="#500A0F" stroke-width="2" stroke-linecap="round" stroke-linejoin="round"/>
<path d="M93 109L89 105L93 101" stroke="#500A0F" stroke-width="2" stroke-linecap="round" stroke-linejoin="round"/>
<path d="M107 99V101C107 102.061 106.579 103.078 105.828 103.828C105.078 104.579 104.061 105 103 105H89" stroke="#500A0F" stroke-width="2" stroke-linecap="round" stroke-linejoin="round"/>
<path d="M98 179.667C143.103 179.667 179.667 143.103 179.667 97.9999C179.667 52.8967 143.103 16.3333 98 16.3333C52.8968 16.3333 16.3333 52.8967 16.3333 97.9999C16.3333 143.103 52.8968 179.667 98 179.667Z" stroke="#500A0F" stroke-width="2" stroke-linecap="round" stroke-linejoin="round"/>
<path d="M40.2616 40.2612L155.738 155.738" stroke="#500A0F" stroke-width="2" stroke-linecap="round" stroke-linejoin="round"/>
<path d="M76.3294 126H61.6973C61.2603 126 60.906 125.646 60.906 125.209V91.0821L58.8302 91.0766V125.209C58.8302 125.646 58.476 126 58.039 126H43.6709C43.2338 126 42.8796 125.646 42.8796 125.209V76.09C42.8796 75.0035 43.4346 74.044 44.2754 73.4801V70.7913C44.2754 70.3542 44.6297 70 45.0667 70H75.2659C75.703 70 76.0572 70.3542 76.0572 70.7913V73.7364C76.709 74.3122 77.1207 75.1541 77.1207 76.09V125.209C77.1207 125.646 76.7665 126 76.3294 126ZM62.4886 124.417H75.5381V83.0498H75.1021C71.4113 83.0498 68.4087 80.0472 68.4087 76.3564V74.5325H63.9963V83.7767C63.9963 84.9863 63.3242 86.0741 62.2422 86.6153L60.7918 87.3407V89.4995L61.6997 89.5019C62.1357 89.503 62.4889 89.8569 62.4889 90.2932V124.417H62.4886ZM44.4622 124.417H57.2479V90.2832C57.2479 90.073 57.3316 89.8714 57.4806 89.7229C57.6291 89.575 57.8298 89.4919 58.0392 89.4919C58.04 89.4919 58.0405 89.4919 58.0413 89.4919L59.2093 89.4951V74.5325H51.5919V76.3564C51.5919 80.0472 48.5892 83.0498 44.8984 83.0498H44.4624V124.417H44.4622ZM60.7916 74.5325V85.5711L61.5341 85.1997C62.0766 84.9283 62.4134 84.3831 62.4134 83.7765V74.5325H60.7916ZM69.9913 74.5325V76.3564C69.9913 79.1746 72.2839 81.4672 75.1021 81.4672H75.5381V76.09C75.5381 75.2312 74.8394 74.5325 73.9806 74.5325H69.9913V74.5325ZM44.4622 81.4672H44.8982C47.7164 81.4672 50.009 79.1746 50.009 76.3564V74.5325H46.0197C45.1609 74.5325 44.4622 75.2312 44.4622 76.09V81.4672ZM69.2 72.9499H74.4747V71.5826H45.858V72.9499H69.2V72.9499Z" fill="#500A0F"/>
<g clip-path="url(#clip0)">
<path d="M158.792 126H123.208C120.854 126 118.939 124.085 118.939 121.73V77.4608C118.939 75.1068 120.854 73.1913 123.208 73.1913H129.838L132.026 70.3322C132.042 70.311 132.059 70.2906 132.077 70.271C132.097 70.2483 132.119 70.2271 132.142 70.2069C132.142 70.2067 132.142 70.2064 132.143 70.2058C132.283 70.0825 132.466 70.0058 132.666 70.0005C132.666 70.0005 132.667 70.0005 132.668 70.0005C132.675 70.0002 132.681 69.9997 132.692 70.0002H149.314C149.321 70 149.33 70.0002 149.338 70.0005C149.339 70.0005 149.34 70.0005 149.34 70.0005C149.539 70.006 149.72 70.0814 149.859 70.2028C149.86 70.2034 149.86 70.2034 149.861 70.2039C149.885 70.2249 149.908 70.2472 149.93 70.2712C149.93 70.2712 149.93 70.2721 149.93 70.2721C149.948 70.2911 149.964 70.3115 149.98 70.3322L152.168 73.1913H158.792C161.146 73.1913 163.061 75.1065 163.061 77.4608V121.73C163.061 124.084 161.146 126 158.792 126ZM149.064 124.344H158.792C160.233 124.344 161.406 123.172 161.406 121.73V77.4608C161.406 76.0197 160.233 74.8471 158.792 74.8471H152.307L148.325 84.2605C148.211 84.5279 147.967 84.7164 147.679 84.7575C147.392 84.7992 147.104 84.6858 146.92 84.4611L146.245 83.6329L145.03 86.0998L149.064 124.344ZM134.6 124.344H147.399L143.437 86.7768H138.563L134.6 124.344ZM123.208 74.8471C121.767 74.8471 120.594 76.0197 120.594 77.4608V121.73C120.594 123.172 121.767 124.344 123.208 124.344H132.936L136.97 86.1001L135.757 83.6382L135.086 84.4611C134.902 84.6858 134.615 84.7995 134.327 84.7575C134.039 84.7167 133.795 84.5279 133.682 84.2605L129.699 74.8471H123.208ZM138.333 85.121H143.667L145.092 82.2266L143.788 80.6276H138.211L136.908 82.2269L138.333 85.121ZM144.416 78.7684L147.335 82.3497L150.809 74.1401L149.325 72.2008L147.605 74.5019C147.602 74.5063 147.599 74.5107 147.595 74.5151L144.416 78.7684ZM131.198 74.1401L134.671 82.3497L135.281 81.6018C135.283 81.5985 135.286 81.5954 135.288 81.5924L137.59 78.7687L132.681 72.2006L131.198 74.1401ZM139.449 78.9718H142.558C142.535 78.8719 142.532 78.7687 142.547 78.6674C142.547 78.6671 142.547 78.6671 142.547 78.6671C142.547 78.6668 142.547 78.6666 142.547 78.6663C142.547 78.6649 142.547 78.6638 142.548 78.6627V78.6627C142.568 78.5324 142.619 78.406 142.702 78.2951L145.28 74.8474H136.727L139.304 78.2951C139.414 78.4425 139.469 78.6169 139.469 78.7913C139.469 78.8517 139.462 78.9124 139.449 78.9718ZM135.489 73.1913H146.517L147.664 71.6561H134.342L135.489 73.1913Z" fill="#500A0F"/>
</g>
<defs>
<clipPath id="clip0">
<rect width="56" height="56" fill="white" transform="translate(113 70)"/>
</clipPath>
</defs>
</svg>
