<svg width="181" height="145" viewBox="0 0 181 145" fill="none" xmlns="http://www.w3.org/2000/svg">
<path d="M125.681 111.754C126.291 108.316 127.088 105.661 128.074 103.79C129.06 101.918 130.771 99.9618 133.206 97.9211L139.365 93.0573C142.038 90.7338 143.629 87.9927 144.139 84.8343C144.63 81.7918 144.284 79.2752 143.101 77.2845C141.923 75.2649 139.941 73.9868 137.156 73.4503C134.45 72.9291 132.149 73.2925 130.252 74.5405C128.355 75.7884 127.193 77.7308 126.768 80.3678L119.407 78.95C120.218 74.2659 122.353 70.7782 125.814 68.487C129.305 66.1717 133.465 65.4791 138.292 66.409C143.306 67.3746 146.966 69.6035 149.274 73.0955C151.614 76.5639 152.369 80.8625 151.542 85.9913C150.723 91.0622 147.768 95.6468 142.676 99.7452L137.581 103.604C135.266 105.578 133.753 108.767 133.042 113.172L125.681 111.754ZM123.139 125.471C123.349 124.167 123.883 123.15 124.739 122.418C125.627 121.663 126.787 121.423 128.219 121.699C129.652 121.975 130.667 122.634 131.264 123.675C131.867 124.687 132.063 125.846 131.852 127.149C131.642 128.454 131.095 129.469 130.212 130.195C129.334 130.892 128.178 131.103 126.746 130.827C125.314 130.551 124.294 129.921 123.687 128.938C123.111 127.931 122.928 126.775 123.139 125.471Z" fill="#500A0F"/>
<path d="M44.2866 113.7C43.7831 110.242 43.7015 107.449 44.042 105.322C44.3823 103.195 45.3772 100.718 47.0269 97.8902L51.292 91.0185C53.0758 87.8364 53.7127 84.6664 53.203 81.5078C52.7119 78.4653 51.599 76.2296 49.8641 74.8011C48.1245 73.3436 45.8621 72.8829 43.077 73.4194C40.3715 73.9405 38.3227 75.1419 36.9307 77.0234C35.5386 78.905 35.0554 81.1641 35.481 83.8011L28.1204 85.2189C27.4157 80.5145 28.3305 76.4392 30.8648 72.9931C33.4211 69.5129 37.1129 67.308 41.9405 66.3781C46.9538 65.4124 51.0915 66.1391 54.3538 68.5584C57.6378 70.9433 59.6938 74.7003 60.5216 79.8292C61.3402 84.9001 59.9984 90.3125 56.4965 96.0662L52.9172 101.596C51.3597 104.316 50.9365 107.878 51.6474 112.283L44.2866 113.7ZM46.1923 127.54C45.9818 126.236 46.1645 125.081 46.7404 124.073C47.3381 123.032 48.3531 122.374 49.7855 122.097C51.2178 121.822 52.378 122.061 53.2656 122.816C54.1487 123.543 54.6953 124.558 54.9058 125.862C55.1162 127.166 54.9204 128.324 54.3179 129.336C53.7108 130.32 52.6912 130.949 51.2587 131.225C49.8264 131.501 48.6711 131.29 47.7926 130.593C46.9363 129.862 46.4027 128.844 46.1923 127.54Z" fill="#500A0F"/>
<path d="M81.9347 86.9764C82.0066 82.3078 82.4915 78.6201 83.3893 75.9131C84.287 73.2062 86.1186 70.2048 88.8839 66.9094L95.9407 58.9651C98.9574 55.238 100.466 51.2364 100.466 46.9602C100.466 42.8409 99.4781 39.624 97.503 37.3092C95.5278 34.9553 92.6548 33.7784 88.8839 33.7784C85.2208 33.7784 82.2761 34.8376 80.0494 36.9562C77.8228 39.0747 76.7095 41.9189 76.7095 45.4889H66.7438C66.8155 39.1334 68.8805 34.0138 72.9387 30.1299C77.0327 26.2068 82.3478 24.2451 88.8839 24.2451C95.6714 24.2451 100.951 26.2459 104.721 30.2476C108.528 34.21 110.432 39.6631 110.432 46.6071C110.432 53.4726 107.523 60.2401 101.705 66.9094L95.8331 73.2649C93.2114 76.4429 91.9006 81.0132 91.9006 86.9764H81.9347ZM81.5038 105.631C81.5038 103.866 81.9887 102.394 82.9583 101.218C83.9638 100.001 85.4363 99.3932 87.3756 99.3932C89.3149 99.3932 90.7874 100.001 91.7929 101.218C92.7984 102.394 93.3012 103.866 93.3012 105.631C93.3012 107.396 92.7984 108.868 91.7929 110.045C90.7874 111.182 89.3149 111.751 87.3756 111.751C85.4363 111.751 83.9638 111.182 82.9583 110.045C81.9887 108.868 81.5038 107.396 81.5038 105.631Z" fill="#500A0F"/>
</svg>
